<?xml version="1.0" encoding="utf-8"?>
<svg version="1.1" xmlns:xlink="http://www.w3.org/1999/xlink" width="212px" height="252px" xmlns="http://www.w3.org/2000/svg">
  <defs>
    <mask fill="white" id="clip409">
      <path d="M 146.733557692306 23.8124999999992  C 158.689134615384 35.6875000000002  164.666923076922 50.0624999999992  164.666923076922 66.9375  C 164.666923076922 83.6562499999993  158.689134615384 97.9531250000004  146.733557692306 109.828124999999  C 134.777980769231 121.703125  120.439102564101 127.640625  103.716923076922 127.640625  C 86.9947435897425 127.640625  72.6558653846157 121.703125  60.7002884615373 109.828124999999  C 48.7447115384627 97.9531250000004  42.7669230769216 83.6562499999993  42.7669230769216 66.9375  C 42.7669230769216 50.0624999999992  48.7447115384627 35.6875000000002  60.7002884615373 23.8124999999992  C 72.6558653846157 11.9375000000001  86.9947435897425 6.00000000000055  103.716923076922 6.00000000000055  C 120.439102564101 6.00000000000055  134.777980769231 11.9375000000001  146.733557692306 23.8124999999992  Z M 145.913076923078 123.070312499999  C 149.820128205127 120.648437499999  152.320641025642 119.125000000001  153.414615384616 118.5  C 160.60358974359 118.5  167.050224358974 119.828124999999  172.754519230769 122.484375000001  C 178.458814102563 125.140625  183.147275641026 128.851562499999  186.819903846153 133.617187499999  C 190.492532051284 138.3828125  193.579102564101 143.617187499999  196.079615384616 149.320312499999  C 198.580128205127 155.023437499999  200.455512820511 161.3515625  201.705769230769 168.304687500001  C 202.956025641026 175.2578125  203.854647435899 181.703125  204.401634615384 187.640625  C 204.948621794873 193.578124999999  205.222115384616 199.75  205.222115384616 206.156250000001  C 205.222115384616 216.624999999999  202.135544871795 225.8828125  195.962403846153 233.929687500001  C 189.789262820511 241.976562499999  181.545384615384 245.999999999999  171.230769230769 246  L 36.2030769230784 246  C 25.8884615384627 245.999999999999  17.6445833333321 241.976562499999  11.4714423076941 233.929687500001  C 5.29830128205227 225.8828125  2.21173076923136 216.624999999999  2.21173076923136 206.156250000001  C 2.21173076923136 198.656250000001  2.56336538461568 191.351562500001  3.26663461538432 184.2421875  C 3.96990384615296 177.132812499999  5.41551282051114 169.4375  7.60346153846272 161.15625  C 9.79141025641045 152.875  12.6435576923059 145.7265625  16.159903846153 139.710937500001  C 19.67625 133.695312499999  24.5991346153843 128.65625  30.9285576923059 124.593749999999  C 37.2579807692314 120.531249999999  44.564166666668 118.5  52.8471153846157 118.5  L 54.0192307692314 118.5  C 55.1132051282052 119.125000000001  57.6137179487164 120.648437499999  61.5207692307686 123.070312499999  C 65.4278205128209 125.492187499999  68.2018269230784 127.132812499999  69.8427884615373 127.992187499999  C 71.48375 128.851562499999  74.062403846153 130.1796875  77.57875 131.976562499999  C 81.095096153847 133.773437499999  83.9863141025634 135.0234375  86.252403846153 135.7265625  C 88.5184935897425 136.429687500001  91.2534294871791 137.132812500001  94.4572115384627 137.835937499999  C 97.6609935897425 138.539062499999  100.747564102563 138.890625000001  103.716923076922 138.890625000001  C 106.686282051284 138.890625000001  109.772852564101 138.539062499999  112.976634615384 137.835937499999  C 116.180416666668 137.132812500001  118.915352564101 136.429687500001  121.181442307694 135.7265625  C 123.447532051284 135.0234375  126.33875 133.773437499999  129.855096153847 131.976562499999  C 133.371442307694 130.1796875  135.950096153847 128.851562499999  137.591057692306 127.992187499999  C 139.232019230769 127.132812499999  142.006025641026 125.492187499999  145.913076923078 123.070312499999  Z " fill-rule="evenodd" />
    </mask>
  </defs>
  <g transform="matrix(1 0 0 1 -111 -3029 )">
    <path d="M 146.733557692306 23.8124999999992  C 158.689134615384 35.6875000000002  164.666923076922 50.0624999999992  164.666923076922 66.9375  C 164.666923076922 83.6562499999993  158.689134615384 97.9531250000004  146.733557692306 109.828124999999  C 134.777980769231 121.703125  120.439102564101 127.640625  103.716923076922 127.640625  C 86.9947435897425 127.640625  72.6558653846157 121.703125  60.7002884615373 109.828124999999  C 48.7447115384627 97.9531250000004  42.7669230769216 83.6562499999993  42.7669230769216 66.9375  C 42.7669230769216 50.0624999999992  48.7447115384627 35.6875000000002  60.7002884615373 23.8124999999992  C 72.6558653846157 11.9375000000001  86.9947435897425 6.00000000000055  103.716923076922 6.00000000000055  C 120.439102564101 6.00000000000055  134.777980769231 11.9375000000001  146.733557692306 23.8124999999992  Z M 145.913076923078 123.070312499999  C 149.820128205127 120.648437499999  152.320641025642 119.125000000001  153.414615384616 118.5  C 160.60358974359 118.5  167.050224358974 119.828124999999  172.754519230769 122.484375000001  C 178.458814102563 125.140625  183.147275641026 128.851562499999  186.819903846153 133.617187499999  C 190.492532051284 138.3828125  193.579102564101 143.617187499999  196.079615384616 149.320312499999  C 198.580128205127 155.023437499999  200.455512820511 161.3515625  201.705769230769 168.304687500001  C 202.956025641026 175.2578125  203.854647435899 181.703125  204.401634615384 187.640625  C 204.948621794873 193.578124999999  205.222115384616 199.75  205.222115384616 206.156250000001  C 205.222115384616 216.624999999999  202.135544871795 225.8828125  195.962403846153 233.929687500001  C 189.789262820511 241.976562499999  181.545384615384 245.999999999999  171.230769230769 246  L 36.2030769230784 246  C 25.8884615384627 245.999999999999  17.6445833333321 241.976562499999  11.4714423076941 233.929687500001  C 5.29830128205227 225.8828125  2.21173076923136 216.624999999999  2.21173076923136 206.156250000001  C 2.21173076923136 198.656250000001  2.56336538461568 191.351562500001  3.26663461538432 184.2421875  C 3.96990384615296 177.132812499999  5.41551282051114 169.4375  7.60346153846272 161.15625  C 9.79141025641045 152.875  12.6435576923059 145.7265625  16.159903846153 139.710937500001  C 19.67625 133.695312499999  24.5991346153843 128.65625  30.9285576923059 124.593749999999  C 37.2579807692314 120.531249999999  44.564166666668 118.5  52.8471153846157 118.5  L 54.0192307692314 118.5  C 55.1132051282052 119.125000000001  57.6137179487164 120.648437499999  61.5207692307686 123.070312499999  C 65.4278205128209 125.492187499999  68.2018269230784 127.132812499999  69.8427884615373 127.992187499999  C 71.48375 128.851562499999  74.062403846153 130.1796875  77.57875 131.976562499999  C 81.095096153847 133.773437499999  83.9863141025634 135.0234375  86.252403846153 135.7265625  C 88.5184935897425 136.429687500001  91.2534294871791 137.132812500001  94.4572115384627 137.835937499999  C 97.6609935897425 138.539062499999  100.747564102563 138.890625000001  103.716923076922 138.890625000001  C 106.686282051284 138.890625000001  109.772852564101 138.539062499999  112.976634615384 137.835937499999  C 116.180416666668 137.132812500001  118.915352564101 136.429687500001  121.181442307694 135.7265625  C 123.447532051284 135.0234375  126.33875 133.773437499999  129.855096153847 131.976562499999  C 133.371442307694 130.1796875  135.950096153847 128.851562499999  137.591057692306 127.992187499999  C 139.232019230769 127.132812499999  142.006025641026 125.492187499999  145.913076923078 123.070312499999  Z " fill-rule="nonzero" fill="#000000" stroke="none" fill-opacity="0" transform="matrix(1 0 0 1 111 3029 )" />
    <path d="M 146.733557692306 23.8124999999992  C 158.689134615384 35.6875000000002  164.666923076922 50.0624999999992  164.666923076922 66.9375  C 164.666923076922 83.6562499999993  158.689134615384 97.9531250000004  146.733557692306 109.828124999999  C 134.777980769231 121.703125  120.439102564101 127.640625  103.716923076922 127.640625  C 86.9947435897425 127.640625  72.6558653846157 121.703125  60.7002884615373 109.828124999999  C 48.7447115384627 97.9531250000004  42.7669230769216 83.6562499999993  42.7669230769216 66.9375  C 42.7669230769216 50.0624999999992  48.7447115384627 35.6875000000002  60.7002884615373 23.8124999999992  C 72.6558653846157 11.9375000000001  86.9947435897425 6.00000000000055  103.716923076922 6.00000000000055  C 120.439102564101 6.00000000000055  134.777980769231 11.9375000000001  146.733557692306 23.8124999999992  Z " stroke-width="2" stroke-dasharray="17,8" stroke="#7f7f7f" fill="none" transform="matrix(1 0 0 1 111 3029 )" mask="url(#clip409)" />
    <path d="M 145.913076923078 123.070312499999  C 149.820128205127 120.648437499999  152.320641025642 119.125000000001  153.414615384616 118.5  C 160.60358974359 118.5  167.050224358974 119.828124999999  172.754519230769 122.484375000001  C 178.458814102563 125.140625  183.147275641026 128.851562499999  186.819903846153 133.617187499999  C 190.492532051284 138.3828125  193.579102564101 143.617187499999  196.079615384616 149.320312499999  C 198.580128205127 155.023437499999  200.455512820511 161.3515625  201.705769230769 168.304687500001  C 202.956025641026 175.2578125  203.854647435899 181.703125  204.401634615384 187.640625  C 204.948621794873 193.578124999999  205.222115384616 199.75  205.222115384616 206.156250000001  C 205.222115384616 216.624999999999  202.135544871795 225.8828125  195.962403846153 233.929687500001  C 189.789262820511 241.976562499999  181.545384615384 245.999999999999  171.230769230769 246  L 36.2030769230784 246  C 25.8884615384627 245.999999999999  17.6445833333321 241.976562499999  11.4714423076941 233.929687500001  C 5.29830128205227 225.8828125  2.21173076923136 216.624999999999  2.21173076923136 206.156250000001  C 2.21173076923136 198.656250000001  2.56336538461568 191.351562500001  3.26663461538432 184.2421875  C 3.96990384615296 177.132812499999  5.41551282051114 169.4375  7.60346153846272 161.15625  C 9.79141025641045 152.875  12.6435576923059 145.7265625  16.159903846153 139.710937500001  C 19.67625 133.695312499999  24.5991346153843 128.65625  30.9285576923059 124.593749999999  C 37.2579807692314 120.531249999999  44.564166666668 118.5  52.8471153846157 118.5  L 54.0192307692314 118.5  C 55.1132051282052 119.125000000001  57.6137179487164 120.648437499999  61.5207692307686 123.070312499999  C 65.4278205128209 125.492187499999  68.2018269230784 127.132812499999  69.8427884615373 127.992187499999  C 71.48375 128.851562499999  74.062403846153 130.1796875  77.57875 131.976562499999  C 81.095096153847 133.773437499999  83.9863141025634 135.0234375  86.252403846153 135.7265625  C 88.5184935897425 136.429687500001  91.2534294871791 137.132812500001  94.4572115384627 137.835937499999  C 97.6609935897425 138.539062499999  100.747564102563 138.890625000001  103.716923076922 138.890625000001  C 106.686282051284 138.890625000001  109.772852564101 138.539062499999  112.976634615384 137.835937499999  C 116.180416666668 137.132812500001  118.915352564101 136.429687500001  121.181442307694 135.7265625  C 123.447532051284 135.0234375  126.33875 133.773437499999  129.855096153847 131.976562499999  C 133.371442307694 130.1796875  135.950096153847 128.851562499999  137.591057692306 127.992187499999  C 139.232019230769 127.132812499999  142.006025641026 125.492187499999  145.913076923078 123.070312499999  Z " stroke-width="2" stroke-dasharray="17,8" stroke="#7f7f7f" fill="none" transform="matrix(1 0 0 1 111 3029 )" mask="url(#clip409)" />
  </g>
</svg>