<?xml version="1.0" encoding="utf-8"?>
<svg version="1.1" xmlns:xlink="http://www.w3.org/1999/xlink" width="112px" height="170px" xmlns="http://www.w3.org/2000/svg">
  <g transform="matrix(1 0 0 1 -144 -2913 )">
    <path d="M 145 2918  A 4 4 0 0 1 149 2914 L 251 2914  A 4 4 0 0 1 255 2918 L 255 3078  A 4 4 0 0 1 251 3082 L 149 3082  A 4 4 0 0 1 145 3078 L 145 2918  Z " fill-rule="nonzero" fill="#ffffff" stroke="none" fill-opacity="0" />
    <path d="M 144.5 2918  A 4.5 4.5 0 0 1 149 2913.5 L 251 2913.5  A 4.5 4.5 0 0 1 255.5 2918 L 255.5 3078  A 4.5 4.5 0 0 1 251 3082.5 L 149 3082.5  A 4.5 4.5 0 0 1 144.5 3078 L 144.5 2918  Z " stroke-width="1" stroke-dasharray="17,8" stroke="#797979" fill="none" stroke-dashoffset="0.5" />
  </g>
</svg>