<?xml version="1.0" encoding="utf-8"?>
<svg version="1.1" xmlns:xlink="http://www.w3.org/1999/xlink" width="40px" height="40px" xmlns="http://www.w3.org/2000/svg">
  <g transform="matrix(1 0 0 1 -197 -952 )">
    <path d="M 217 952  C 228.2 952  237 960.8  237 972  C 237 983.2  228.2 992  217 992  C 205.8 992  197 983.2  197 972  C 197 960.8  205.8 952  217 952  Z " fill-rule="nonzero" fill="#ffffff" stroke="none" />
    <path d="M 217 952.5  C 227.92 952.5  236.5 961.08  236.5 972  C 236.5 982.92  227.92 991.5  217 991.5  C 206.08 991.5  197.5 982.92  197.5 972  C 197.5 961.08  206.08 952.5  217 952.5  Z " stroke-width="1" stroke="#797979" fill="none" />
  </g>
</svg>