<?xml version="1.0" encoding="utf-8"?>
<svg version="1.1" xmlns:xlink="http://www.w3.org/1999/xlink" width="270px" height="333px" xmlns="http://www.w3.org/2000/svg">
  <g transform="matrix(1 0 0 1 -434 -728 )">
    <path d="M 435 733  A 4 4 0 0 1 439 729 L 699 729  A 4 4 0 0 1 703 733 L 703 1056  A 4 4 0 0 1 699 1060 L 439 1060  A 4 4 0 0 1 435 1056 L 435 733  Z " fill-rule="nonzero" fill="#ffffff" stroke="none" />
    <path d="M 434.5 733  A 4.5 4.5 0 0 1 439 728.5 L 699 728.5  A 4.5 4.5 0 0 1 703.5 733 L 703.5 1056  A 4.5 4.5 0 0 1 699 1060.5 L 439 1060.5  A 4.5 4.5 0 0 1 434.5 1056 L 434.5 733  Z " stroke-width="1" stroke="#9e99b9" fill="none" stroke-opacity="0.203921568627451" />
  </g>
</svg>