<?xml version="1.0" encoding="utf-8"?>
<svg version="1.1" xmlns:xlink="http://www.w3.org/1999/xlink" width="10px" height="10px" xmlns="http://www.w3.org/2000/svg">
  <g transform="matrix(1 0 0 1 -125 -778 )">
    <path d="M 6.60807291666667 8.27473958333337  C 6.64713541666667 8.23567708333337  6.66666666666667 8.18576388888891  6.66666666666667 8.125  L 6.66666666666667 7.08333333333337  C 6.66666666666667 7.02256944444446  6.64713541666667 6.97265625  6.60807291666667 6.93359375  C 6.56901041666667 6.89453125  6.51909722222221 6.875  6.45833333333333 6.875  L 5.83333333333333 6.875  L 5.83333333333333 3.54166666666663  C 5.83333333333333 3.48090277777777  5.81380208333333 3.43098958333337  5.77473958333333 3.39192708333337  C 5.73567708333333 3.35286458333337  5.68576388888889 3.33333333333337  5.625 3.33333333333337  L 3.54166666666667 3.33333333333337  C 3.48090277777777 3.33333333333337  3.43098958333333 3.35286458333337  3.39192708333333 3.39192708333337  C 3.35286458333333 3.43098958333337  3.33333333333333 3.48090277777777  3.33333333333333 3.54166666666663  L 3.33333333333333 4.58333333333337  C 3.33333333333333 4.64409722222223  3.35286458333333 4.69401041666663  3.39192708333333 4.73307291666663  C 3.43098958333333 4.77213541666663  3.48090277777777 4.79166666666663  3.54166666666667 4.79166666666663  L 4.16666666666667 4.79166666666663  L 4.16666666666667 6.875  L 3.54166666666667 6.875  C 3.48090277777777 6.875  3.43098958333333 6.89453125  3.39192708333333 6.93359375  C 3.35286458333333 6.97265625  3.33333333333333 7.02256944444446  3.33333333333333 7.08333333333337  L 3.33333333333333 8.125  C 3.33333333333333 8.18576388888891  3.35286458333333 8.23567708333337  3.39192708333333 8.27473958333337  C 3.43098958333333 8.31380208333337  3.48090277777777 8.33333333333337  3.54166666666667 8.33333333333337  L 6.45833333333333 8.33333333333337  C 6.51909722222221 8.33333333333337  6.56901041666667 8.31380208333337  6.60807291666667 8.27473958333337  Z M 5.77473958333333 2.44140625  C 5.81380208333333 2.40234375  5.83333333333333 2.35243055555554  5.83333333333333 2.29166666666663  L 5.83333333333333 1.25  C 5.83333333333333 1.18923611111109  5.81380208333333 1.13932291666663  5.77473958333333 1.10026041666663  C 5.73567708333333 1.06119791666663  5.68576388888889 1.04166666666663  5.625 1.04166666666663  L 4.375 1.04166666666663  C 4.31423611111111 1.04166666666663  4.26432291666667 1.06119791666663  4.22526041666667 1.10026041666663  C 4.18619791666667 1.13932291666663  4.16666666666667 1.18923611111109  4.16666666666667 1.25  L 4.16666666666667 2.29166666666663  C 4.16666666666667 2.35243055555554  4.18619791666667 2.40234375  4.22526041666667 2.44140625  C 4.26432291666667 2.48046875  4.31423611111111 2.5  4.375 2.5  L 5.625 2.5  C 5.68576388888889 2.5  5.73567708333333 2.48046875  5.77473958333333 2.44140625  Z M 9.32942708333333 2.490234375  C 9.77647569444444 3.25629340277777  10 4.09288194444446  10 5  C 10 5.90711805555554  9.77647569444444 6.74370659722223  9.32942708333333 7.509765625  C 8.88237847222221 8.27582465277777  8.27582465277779 8.88237847222223  7.509765625 9.32942708333337  C 6.74370659722221 9.77647569444446  5.90711805555556 10  5 10  C 4.09288194444444 10  3.25629340277777 9.77647569444446  2.490234375 9.32942708333337  C 1.72417534722223 8.88237847222223  1.11762152777777 8.27582465277777  0.670572916666671 7.509765625  C 0.223524305555557 6.74370659722223  0 5.90711805555554  0 5  C 0 4.09288194444446  0.223524305555557 3.25629340277777  0.670572916666671 2.490234375  C 1.11762152777777 1.72417534722223  1.72417534722223 1.11762152777777  2.490234375 0.670572916666629  C 3.25629340277777 0.223524305555543  4.09288194444444 0  5 0  C 5.90711805555556 0  6.74370659722221 0.223524305555543  7.509765625 0.670572916666629  C 8.27582465277779 1.11762152777777  8.88237847222221 1.72417534722223  9.32942708333333 2.490234375  Z " fill-rule="nonzero" fill="#333333" stroke="none" transform="matrix(1 0 0 1 125 778 )" />
  </g>
</svg>