<?xml version="1.0" encoding="utf-8"?>
<svg version="1.1" xmlns:xlink="http://www.w3.org/1999/xlink" width="17px" height="17px" xmlns="http://www.w3.org/2000/svg">
  <defs>
    <mask fill="white" id="clip330">
      <path d="M 0 16  L 0 7  L 0 0  L 16 0  L 16 16  L 0 16  Z " fill-rule="evenodd" />
    </mask>
  </defs>
  <g transform="matrix(1 0 0 1 -86 -744 )">
    <path d="M 0 16  L 0 7  L 0 0  L 16 0  L 16 16  L 0 16  Z M 0.353553390593277 15.6464466094067  L 15.6464466094067 0.353553390593277  L 10.3537906137184 5.64620938628161  L 8.36823104693141 7.63176895306862  L 0.353553390593277 15.6464466094067  Z " fill-rule="nonzero" fill="#f2f2f2" stroke="none" transform="matrix(1 0 0 1 86 744 )" />
    <path d="M 0 16  L 0 7  L 0 0  L 16 0  L 16 16  L 0 16  Z " stroke-width="2" stroke="#d7d7d7" fill="none" transform="matrix(1 0 0 1 86 744 )" mask="url(#clip330)" />
    <path d="M 15.6464466094067 0.353553390593277  L 10.3537906137184 5.64620938628161  L 8.36823104693141 7.63176895306862  L 0.353553390593277 15.6464466094067  M 0.353553390593277 0.353553390593277  L 15.6464466094067 15.6464466094067  " stroke-width="1" stroke="#d7d7d7" fill="none" transform="matrix(1 0 0 1 86 744 )" />
  </g>
</svg>